# xmcd
#
# Track frame offsets:
#	150
#	15818
#	34754
#	54936
#	67066
#	84906
#	99322
#	116811
#	135039
#	150173
#	174114
#	215445
#
# Disc length: 3115 seconds
#
# Revision: 0
# Processed by: cddbd v1.5.2PL0 Copyright (c) Steve Scherf et al.
# Submitted via: EZCDAudioConverter 5.3.0.1
#
DISCID=7e0c290c
DTITLE=Sara Petite - Road Less Traveled
DYEAR=2017
DGENRE=Country
TTITLE0=Road Less Traveled
TTITLE1=It Was Just a Kiss
TTITLE2=Blackbird
TTITLE3=Getting Over You
TTITLE4=You Don't Care at All
TTITLE5=Patchwork Quilt
TTITLE6=Good 2 B Me
TTITLE7=Sweet Pea Blues
TTITLE8=Monkey on My Back
TTITLE9=I Will Rise
TTITLE10=Swett Pea Patch
TTITLE11=Road Less Traveled Reprise
EXTD=
EXTT0=
EXTT1=
EXTT2=
EXTT3=
EXTT4=
EXTT5=
EXTT6=
EXTT7=
EXTT8=
EXTT9=
EXTT10=
EXTT11=
PLAYORDER=
